# xmcd CD database file
#
# Track frame offsets:
#	182
#	11440
#	28815
#	41130
#	57432
#	69192
#	81802
#	92807
#	103850
#	117715
#	129072
#
# Disc length: 1931 seconds
#
# Revision: 2
# Processed by: cddbd v1.5.2PL0 Copyright (c) Steve Scherf et al.
# Submitted via: CDex 1.70beta2
#
DISCID=8f07890b
DTITLE=Manfred Mann - Pretty Flamingo
DYEAR=1966
DGENRE=
TTITLE0=Pretty Flamingo 
TTITLE1=Let's Go Get Stoned 
TTITLE2=Tired Of Trying, Bored With Living, Scared Of Dying 
TTITLE3=I Put A Spell On You 
TTITLE4=It's Getting Late
TTITLE5=You're Standing by
TTITLE6=Machines 
TTITLE7=Stay Around 
TTITLE8=Tennessee Waltz 
TTITLE9=Driva Man 
TTITLE10=Do You Have To Do That 
EXTD=YEAR: 1966
EXTT0=
EXTT1=
EXTT2=
EXTT3=
EXTT4=
EXTT5=
EXTT6=
EXTT7=
EXTT8=
EXTT9=
EXTT10=
PLAYORDER=
